<svg id="Layer_1" data-name="Layer 1" xmlns="http://www.w3.org/2000/svg" viewBox="0 0 114.83 202.93"><defs><style>.cls-1{fill:#54565a;}.cls-2{fill:#fff;}</style></defs><title>large_gray</title><g id="Layer_1-2" data-name="Layer 1"><rect class="cls-1" x="-0.23" y="0.17" width="115.54" height="202.99"/><path class="cls-2" d="M18.39,157.81h2.38v5.62h6.45v-5.62H29.6v13.52H27.22v-5.7H20.77v5.7H18.39Z"/><path class="cls-2" d="M34.6,164.61v0a7.07,7.07,0,0,1,14.14,0v0a7.07,7.07,0,0,1-14.14,0Zm11.64,0v0a4.63,4.63,0,0,0-4.45-4.81h-.14a4.57,4.57,0,0,0-4.57,4.57c0,.07,0,.13,0,.2v0a4.62,4.62,0,0,0,4.44,4.79h.16a4.55,4.55,0,0,0,4.56-4.54A1.48,1.48,0,0,0,46.24,164.61Z"/><path class="cls-2" d="M53.54,157.81h2.53l4.12,6.39,4.11-6.39h2.53v13.52H64.46v-9.7L60.19,168h-.08l-4.23-6.34v9.66H53.54Z"/><path class="cls-2" d="M73,157.81H83v2.12H75.39v3.52h6.78v2.12H75.39v3.63h7.74v2.13H73Z"/><path class="cls-2" d="M87.75,169.36l1.43-1.7a6.23,6.23,0,0,0,4.26,1.76c1.47,0,2.4-.7,2.4-1.7v0c0-1-.54-1.49-3-2.07-2.88-.69-4.5-1.54-4.5-4v0c0-2.32,1.93-3.93,4.61-3.93a7.55,7.55,0,0,1,4.91,1.7l-1.27,1.8a6.17,6.17,0,0,0-3.68-1.39c-1.39,0-2.2.71-2.2,1.6v0c0,1,.62,1.51,3.23,2.13,2.86.69,4.33,1.72,4.33,4v0c0,2.53-2,4-4.83,4A8.32,8.32,0,0,1,87.75,169.36Z"/><path class="cls-2" d="M57.4,88a31,31,0,0,1-12.07-2.38c-.77-.33-1.52-.68-2.25-1.06A31.42,31.42,0,0,0,35.47,90a30.78,30.78,0,0,0-6.65,9.7,30.17,30.17,0,0,0,0,23.69,30.83,30.83,0,0,0,6.65,9.66,31.18,31.18,0,0,0,31.37,7.46,32,32,0,0,0,8.19-4l6,6.1,6.75-6.76L81.94,130a31.14,31.14,0,0,0,4.74-8.55,29,29,0,0,0,1.65-9.89,29.31,29.31,0,0,0-2.42-11.86A30.62,30.62,0,0,0,71.65,84.57c-.72.36-1.46.71-2.22,1A30.63,30.63,0,0,1,57.4,88Zm18.26,16a19,19,0,0,1,1.58,7.64A18.64,18.64,0,0,1,74.15,122l-5.43-5.59L62,123.2l5.51,5.36a21.15,21.15,0,0,1-4.82,2.06,19.62,19.62,0,0,1-13-.84,20.85,20.85,0,0,1-6.31-4.26A19.4,19.4,0,0,1,39,119.23,19.66,19.66,0,0,1,43.3,97.64a20.43,20.43,0,0,1,6.31-4.3,19.72,19.72,0,0,1,15.47,0,19.91,19.91,0,0,1,6.32,4.3A20.85,20.85,0,0,1,75.66,104Z"/><path class="cls-2" d="M76.89,60.54H88.37c.09-1,.14-2,.14-3a29,29,0,0,0-2.46-11.94,30.73,30.73,0,0,0-6.71-9.7,31.73,31.73,0,0,0-43.95,0,30,30,0,0,0,0,43.27,31,31,0,0,0,7.69,5.45c.73-.37,1.47-.73,2.24-1.06a31.53,31.53,0,0,1,24.06,0c.78.33,1.53.7,2.27,1.08a31.74,31.74,0,0,0,7.69-5.47,30.26,30.26,0,0,0,6.71-9.69c.19-.42.36-.85.52-1.28H74a18.8,18.8,0,0,1-2.6,3.22,20.23,20.23,0,0,1-6.29,4.26,19.5,19.5,0,0,1-15.39,0,20.23,20.23,0,0,1-6.29-4.26,19.7,19.7,0,0,1-4.23-6.28,18.37,18.37,0,0,1-1.31-4.53ZM39.15,49.9a20,20,0,0,1,4.23-6.24,20.4,20.4,0,0,1,6.29-4.26,19.5,19.5,0,0,1,15.39,0,20.4,20.4,0,0,1,6.29,4.26,20,20,0,0,1,4.23,6.24c.13.31.26.62.37.94H38.77C38.89,50.52,39,50.21,39.15,49.9Z"/></g></svg>